<?xml version="1.0" encoding="utf-8"?>
<!-- Generator: Adobe Illustrator 21.0.2, SVG Export Plug-In . SVG Version: 6.00 Build 0)  -->
<svg version="1.1" id="Lager_1" xmlns="http://www.w3.org/2000/svg" xmlns:xlink="http://www.w3.org/1999/xlink" x="0px" y="0px"
	 viewBox="0 0 1366 768" style="enable-background:new 0 0 1366 768;" xml:space="preserve">
<style type="text/css">
	.st0{fill:#BFC0BD;}
	.st1{fill:#D9D7D3;}
	.st2{fill:#B9B7B3;}
	.st3{stroke:#000000;stroke-width:0.25;stroke-miterlimit:10;}
</style>
<path id="Första" class="st0" d="M503.7,379.3c0,0-0.7-68.7,4-116c4.7-47.3,18.7-66,42.7-95.3s64-47.6,91.3-50
	c27.3-2.4,48.4-7.6,75.3,3.3s65.3,30,76.7,48s27.3,34,34,72s6.7,55.3,6.7,55.3v86h-57.3c0,0-1.3-92,0-118s-40.7-68-44.7-72.7
	s-35.3-22-61.3-19.3c-26,2.7-62,18.7-74,30c-12,11.3-31.5,40-32,70s-2,110-2,110S503.5,386.7,503.7,379.3z"/>
<polygon id="Andra" class="st1" points="474.4,380.4 471.7,685.8 875.8,685.8 875.8,380.4 "/>
<polygon id="Tredje" class="st2" points="473.7,380.4 629.1,400.4 745.1,400.4 873.8,380.4 "/>
<g id="outerhaven_text">
	<path class="st3" d="M535.5,544c0,6.9-1.7,12.2-5.2,16.2c-3.5,3.9-8.3,5.9-14.5,5.9c-6.3,0-11.2-1.9-14.6-5.8s-5.1-9.3-5.1-16.3
		c0-7,1.7-12.4,5.2-16.2c3.4-3.8,8.3-5.8,14.6-5.8c6.2,0,11,2,14.4,5.9S535.5,537.1,535.5,544z M501.3,544c0,5.8,1.2,10.2,3.7,13.2
		c2.5,3,6.1,4.5,10.8,4.5c4.7,0,8.3-1.5,10.8-4.5c2.4-3,3.6-7.4,3.6-13.2c0-5.8-1.2-10.1-3.6-13.1c-2.4-3-6-4.5-10.7-4.5
		c-4.7,0-8.4,1.5-10.8,4.5C502.6,533.9,501.3,538.3,501.3,544z"/>
	<path class="st3" d="M548.8,533.3v20.8c0,2.6,0.6,4.6,1.8,5.9c1.2,1.3,3.1,1.9,5.6,1.9c3.4,0,5.8-0.9,7.4-2.8s2.3-4.8,2.3-9v-16.9
		h4.9v32.1h-4l-0.7-4.3h-0.3c-1,1.6-2.4,2.8-4.1,3.6c-1.8,0.8-3.8,1.3-6,1.3c-3.9,0-6.8-0.9-8.8-2.8c-1.9-1.9-2.9-4.8-2.9-8.9v-21
		H548.8z"/>
	<path class="st3" d="M591.5,562c0.9,0,1.7-0.1,2.5-0.2c0.8-0.1,1.4-0.3,1.9-0.4v3.7c-0.5,0.3-1.3,0.5-2.3,0.6s-1.9,0.2-2.8,0.2
		c-6.2,0-9.3-3.3-9.3-9.8v-19.1h-4.6v-2.3l4.6-2l2.1-6.9h2.8v7.4h9.3v3.8h-9.3V556c0,1.9,0.5,3.4,1.4,4.5
		C588.6,561.5,589.9,562,591.5,562z"/>
	<path class="st3" d="M615.8,566c-4.7,0-8.5-1.4-11.2-4.3c-2.7-2.9-4.1-6.9-4.1-12c0-5.2,1.3-9.3,3.8-12.3s6-4.6,10.3-4.6
		c4,0,7.2,1.3,9.6,4s3.5,6.1,3.5,10.5v3.1h-22.1c0.1,3.8,1,6.6,2.9,8.6c1.8,2,4.4,2.9,7.6,2.9c3.5,0,6.9-0.7,10.3-2.2v4.3
		c-1.7,0.7-3.3,1.3-4.9,1.6C619.9,565.9,618,566,615.8,566z M614.5,536.8c-2.6,0-4.6,0.8-6.2,2.5c-1.5,1.7-2.4,4-2.7,7h16.8
		c0-3.1-0.7-5.4-2.1-7C619,537.7,617.1,536.8,614.5,536.8z"/>
	<path class="st3" d="M650.6,532.8c1.4,0,2.7,0.1,3.8,0.4l-0.7,4.5c-1.3-0.3-2.5-0.4-3.5-0.4c-2.6,0-4.8,1.1-6.7,3.2
		s-2.8,4.7-2.8,7.9v17.2h-4.9v-32.1h4l0.6,5.9h0.2c1.2-2.1,2.6-3.7,4.3-4.8C646.7,533.3,648.6,532.8,650.6,532.8z"/>
	<path class="st3" d="M709.3,565.5h-5v-20.2h-22.6v20.2h-5v-42.8h5v18.2h22.6v-18.2h5V565.5z"/>
	<path class="st3" d="M740,565.5l-1-4.6h-0.2c-1.6,2-3.2,3.4-4.8,4.1c-1.6,0.7-3.6,1.1-6,1.1c-3.2,0-5.7-0.8-7.5-2.5
		c-1.8-1.6-2.7-4-2.7-7c0-6.5,5.2-9.9,15.6-10.2l5.4-0.2v-2c0-2.5-0.5-4.4-1.6-5.6s-2.8-1.8-5.2-1.8c-2.7,0-5.7,0.8-9.1,2.5
		l-1.5-3.7c1.6-0.9,3.3-1.5,5.2-2c1.9-0.5,3.8-0.7,5.7-0.7c3.8,0,6.7,0.8,8.5,2.5s2.8,4.4,2.8,8.2v21.9H740z M729.1,562
		c3,0,5.4-0.8,7.1-2.5s2.6-4,2.6-7v-2.9l-4.9,0.2c-3.9,0.1-6.7,0.7-8.4,1.8c-1.7,1.1-2.6,2.7-2.6,5c0,1.8,0.5,3.1,1.6,4
		C725.6,561.6,727.1,562,729.1,562z"/>
	<path class="st3" d="M760.7,565.5l-12.2-32.1h5.2l6.9,19c1.6,4.5,2.5,7.3,2.8,8.7h0.2c0.2-1,0.9-3.2,2-6.4s3.7-10.3,7.7-21.3h5.2
		l-12.2,32.1H760.7z"/>
	<path class="st3" d="M797.3,566c-4.7,0-8.5-1.4-11.2-4.3c-2.7-2.9-4.1-6.9-4.1-12c0-5.2,1.3-9.3,3.8-12.3s6-4.6,10.3-4.6
		c4,0,7.2,1.3,9.6,4s3.5,6.1,3.5,10.5v3.1H787c0.1,3.8,1,6.6,2.9,8.6c1.8,2,4.4,2.9,7.6,2.9c3.5,0,6.9-0.7,10.3-2.2v4.3
		c-1.7,0.7-3.3,1.3-4.9,1.6C801.3,565.9,799.5,566,797.3,566z M796,536.8c-2.6,0-4.6,0.8-6.2,2.5c-1.5,1.7-2.4,4-2.7,7h16.8
		c0-3.1-0.7-5.4-2.1-7C800.5,537.7,798.5,536.8,796,536.8z"/>
	<path class="st3" d="M839.4,565.5v-20.8c0-2.6-0.6-4.6-1.8-5.9c-1.2-1.3-3.1-1.9-5.6-1.9c-3.4,0-5.8,0.9-7.4,2.7
		c-1.6,1.8-2.3,4.8-2.3,9v16.8h-4.9v-32.1h4l0.8,4.4h0.2c1-1.6,2.4-2.8,4.2-3.7c1.8-0.9,3.8-1.3,6-1.3c3.9,0,6.8,0.9,8.7,2.8
		c2,1.9,2.9,4.8,2.9,9v20.9H839.4z"/>
</g>
</svg>
